{"title":"Jessie J - Price Tag.Top of the Pops Christmas 2011.BBC One HD.2","uid":6998878,"size":262150584,"categoryP":"video","categoryS":"other","magnet":"?xt=urn:btih:89eb9f25c7c7beff38879b2020fc812645f9b506&amp;dn=Jessie+J+-+Price+Tag.Top+of+the+Pops+Christmas+2011.BBC+One+HD.2&amp;tr=udp%3A%2F%2Ftracker.openbittorrent.com%3A80&amp;tr=udp%3A%2F%2Fopen.demonii.com%3A1337&amp;tr=udp%3A%2F%2Ftracker.coppersurfer.tk%3A6969&amp;tr=udp%3A%2F%2Fexodus.desync.com%3A6969","seeders":1,"leechers":0,"uploader":null,"files":1,"time":1327983102,"description":"Format                           : MPEG-TS\nFile size                        : 250 MiB\nDuration                         : 3mn 46s\nOverall bit rate                 : 9 240 Kbps\n\nVideo\nID                               : 5400 (0x1518)\nMenu ID                          : 1 (0x1)\nFormat                           : AVC\nFormat/Info                      : Advanced Video Codec\nFormat profile                   : &lt;a class=&quot;__cf_email__&quot; href=&quot;/cdn-cgi/l/email-protection&quot; data-cfemail=&quot;743c1d131c3438405a44&quot;&gt;[email&amp;#160;protected]&lt;/a&gt;&lt;script cf-hash='f9e31' type=&quot;text/javascript&quot;&gt;\n/* &lt;![CDATA[ */!function(){try{var t=&quot;currentScript&quot;in document?document.currentScript:function(){for(var t=document.getElementsByTagName(&quot;script&quot;),e=t.length;e--;)if(t[e].getAttribute(&quot;cf-hash&quot;))return t[e]}();if(t&amp;&amp;t.previousSibling){var e,r,n,i,c=t.previousSibling,a=c.getAttribute(&quot;data-cfemail&quot;);if(a){for(e=&quot;&quot;,r=parseInt(a.substr(0,2),16),n=2;a.length-n;n+=2)i=parseInt(a.substr(n,2),16)^r,e+=String.fromCharCode(i);e=document.createTextNode(e),c.parentNode.replaceChild(e,c)}}}catch(u){}}();/* ]]&gt; */&lt;/script&gt;\nFormat settings, CABAC           : Yes\nFormat settings, ReFrames        : 4 frames\nFormat settings, GOP             : M=4, N=12\nCodec ID                         : 27\nDuration                         : 3mn 47s\nBit rate                         : 8 589 Kbps\nWidth                            : 1 440 pixels\nHeight                           : 1 080 pixels\nDisplay aspect ratio             : 16:9\nFrame rate                       : 25.000 fps\nColor space                      : YUV\nChroma subsampling               : 4:2:0\nBit depth                        : 8 bits\nScan type                        : MBAFF\nBits/(Pixel*Frame)               : 0.221\nStream size                      : 232 MiB (93%)\nColor primaries                  : BT.709-5, BT.1361, IEC 61966-2-4, SMPTE RP177\nTransfer characteristics         : BT.709-5, BT.1361\nMatrix coefficients              : BT.709-5, BT.1361, IEC 61966-2-4 709, SMPTE RP177\n\nAudio\nID                               : 5401 (0x1519)\nMenu ID                          : 1 (0x1)\nFormat                           : AC-3\nFormat/Info                      : Audio Coding 3\nMode extension                   : CM (complete main)\nCodec ID                         : 6\nDuration                         : 3mn 46s\nBit rate mode                    : Constant\nBit rate                         : 192 Kbps\nChannel(s)                       : 2 channels\nChannel positions                : Front: L R\nSampling rate                    : 48.0 KHz\nBit depth                        : 16 bits\nCompression mode                 : Lossy\nDelay relative to video          : -40ms\nStream size                      : 5.20 MiB (2%)\nLanguage                         : English\n","torrent":{"xt":"urn:btih:89eb9f25c7c7beff38879b2020fc812645f9b506","amp;dn":"Jessie+J+-+Price+Tag.Top+of+the+Pops+Christmas+2011.BBC+One+HD.2","amp;tr":["udp%3A%2F%2Ftracker.openbittorrent.com%3A80","udp%3A%2F%2Fopen.demonii.com%3A1337","udp%3A%2F%2Ftracker.coppersurfer.tk%3A6969","udp%3A%2F%2Fexodus.desync.com%3A6969"],"infoHash":"89eb9f25c7c7beff38879b2020fc812645f9b506","infoHashBuffer":{"type":"Buffer","data":[137,235,159,37,199,199,190,255,56,135,155,32,32,252,129,38,69,249,181,6]},"announce":[],"urlList":[]}}